<svg width="14" height="20" viewBox="0 0 14 20" fill="none" xmlns="http://www.w3.org/2000/svg">
<path d="M7.74902 19.7053L13.6887 13.9032C14.1025 13.499 14.1025 12.8505 13.6887 12.4463C13.2749 12.0421 12.6111 12.0421 12.1973 12.4463L8.05937 16.4884L8.05937 1.03579C8.05937 0.463159 7.58523 1.45491e-06 6.99902 1.35241e-06C6.41282 1.24992e-06 5.93868 0.463159 5.93868 1.03579L5.93868 16.48L1.80074 12.4379C1.38695 12.0337 0.72316 12.0337 0.309367 12.4379C-0.104427 12.8421 -0.104427 13.4905 0.309366 13.8947L6.24902 19.6968C6.45592 19.8989 6.72316 20 6.99902 20C7.27488 20 7.54212 19.9074 7.74902 19.7053Z" fill="white"/>
</svg>
