<svg width="24" height="24" viewBox="0 0 24 24" fill="none" xmlns="http://www.w3.org/2000/svg">
<path d="M22.1759 21.2651H1.82236C1.39445 21.2651 1.05957 21.6186 1.05957 22.0279C1.05957 22.4372 1.41306 22.7907 1.82236 22.7907H22.1945C22.6224 22.7907 22.9572 22.4372 22.9572 22.0279C22.9572 21.6186 22.6038 21.2651 22.1759 21.2651Z" fill="white"/>
<path d="M1.05962 14.5116L1.04102 18.1395C1.04102 18.3442 1.11543 18.5488 1.26427 18.6977C1.41311 18.8465 1.59916 18.9209 1.80381 18.9209L5.41311 18.9023C5.61776 18.9023 5.80381 18.8279 5.95264 18.6791L18.4178 6.21395C18.7154 5.91628 18.7154 5.43256 18.4178 5.11628L14.8457 1.50698C14.548 1.2093 14.0643 1.2093 13.748 1.50698L11.255 4.01861L1.28288 13.9721C1.15264 14.1209 1.05962 14.307 1.05962 14.5116ZM14.3061 3.14419L16.8178 5.65581L15.4038 7.06977L12.8922 4.55814L14.3061 3.14419ZM2.60381 14.8465L11.7945 5.65581L14.3061 8.16744L5.11543 17.3395L2.5852 17.3581L2.60381 14.8465Z" fill="white"/>
</svg>
