<svg width="18" height="18" viewBox="0 0 18 18" fill="none" xmlns="http://www.w3.org/2000/svg">
<path d="M0.471327 17.527C0.786196 17.8423 1.1929 18 1.61273 18C2.03255 18 2.43926 17.8423 2.75413 17.527L8.99902 11.273L15.2439 17.527C15.5588 17.8423 15.9655 18 16.3853 18C16.8051 18 17.2119 17.8423 17.5267 17.527C18.1565 16.8964 18.1565 15.8847 17.5267 15.254L11.2556 9L17.5005 2.74599C18.1302 2.11533 18.1302 1.10365 17.5005 0.472993C16.8707 -0.157664 15.8605 -0.157664 15.2308 0.472993L8.9859 6.72701L2.74101 0.472993C2.11127 -0.157664 1.10106 -0.157664 0.471327 0.472993C-0.158411 1.10365 -0.158411 2.11533 0.471327 2.74599L6.71622 9L0.471327 15.254C-0.158411 15.8847 -0.158411 16.8964 0.471327 17.527Z" fill="white"/>
</svg>
