<svg width="14" height="20" viewBox="0 0 14 20" fill="none" xmlns="http://www.w3.org/2000/svg">
<path d="M6.24902 0.294737L0.309369 6.09684C-0.104424 6.50105 -0.104424 7.14947 0.309369 7.55368C0.723163 7.95789 1.38695 7.95789 1.80075 7.55368L5.93868 3.51158V18.9642C5.93868 19.5368 6.41282 20 6.99902 20C7.58523 20 8.05937 19.5368 8.05937 18.9642V3.52L12.1973 7.5621C12.6111 7.96631 13.2749 7.96631 13.6887 7.5621C14.1025 7.15789 14.1025 6.50947 13.6887 6.10526L7.74902 0.303158C7.54213 0.101053 7.27489 0 6.99902 0C6.72316 0 6.45592 0.0926304 6.24902 0.294737Z" fill="white"/>
</svg>
