<svg width="24" height="24" viewBox="0 0 24 24" fill="none" xmlns="http://www.w3.org/2000/svg">
<g clip-path="url(#clip0)">
<path d="M17.279 0H0.959023C0.429101 0 -0.000976562 0.430078 -0.000976562 0.96V17.28C-0.000976562 17.8099 0.429101 18.24 0.959023 18.24H17.279C17.8089 18.24 18.239 17.8099 18.239 17.28V0.96C18.239 0.430078 17.8089 0 17.279 0ZM16.319 16.32H1.91902V1.92H16.319V16.32Z" fill="white"/>
<path d="M22.0787 19.68V22.08H19.6787V24H23.0387C23.5686 24 23.9987 23.5699 23.9987 23.04V19.68H22.0787Z" fill="white"/>
<path d="M17.4617 22.08H12.2969V24H17.4617V22.08Z" fill="white"/>
<path d="M7.67879 22.08V19.68H5.75879V23.04C5.75879 23.5699 6.18887 24 6.71879 24H10.0788V22.08H7.67879Z" fill="white"/>
<path d="M23.0387 5.76001H19.6787V7.68001H22.0787V10.08H23.9987V6.72001C23.9987 6.19009 23.5686 5.76001 23.0387 5.76001Z" fill="white"/>
<path d="M23.9991 12.2976H22.0791V17.4624H23.9991V12.2976Z" fill="white"/>
</g>
<defs>
<clipPath id="clip0">
<rect x="-0.000976562" width="24" height="24" fill="white"/>
</clipPath>
</defs>
</svg>
